<?xml version="1.0" encoding="iso-8859-1"?>
<!-- Generator: Adobe Illustrator 19.0.0, SVG Export Plug-In . SVG Version: 6.00 Build 0)  -->
<svg version="1.1" id="Capa_1" xmlns="http://www.w3.org/2000/svg" xmlns:xlink="http://www.w3.org/1999/xlink" x="0px" y="0px"
	 viewBox="0 0 512 512" style="enable-background:new 0 0 512 512;" xml:space="preserve">
<g>
	<g>
		<path d="M394.667,21.333C388.779,21.333,384,26.112,384,32v128c0,5.888,4.779,10.667,10.667,10.667s10.667-4.779,10.667-10.667V32
			C405.333,26.112,400.555,21.333,394.667,21.333z"/>
	</g>
</g>
<g>
	<g>
		<path d="M394.667,341.333c-5.888,0-10.667,4.779-10.667,10.667v128c0,5.888,4.779,10.667,10.667,10.667
			s10.667-4.779,10.667-10.667V352C405.333,346.112,400.555,341.333,394.667,341.333z"/>
	</g>
</g>
<g>
	<g>
		<path d="M366.869,123.968C377.216,118.635,384,108.053,384,96c0-15.189-10.624-27.925-24.832-31.189l-2.517-19.307
			C353.259,19.563,330.965,0,304.811,0c-27.307,0-49.707,20.523-52.075,47.723l-13.632,156.779
			c-0.256,3.115,0.832,6.208,3.029,8.427c2.005,2.048,4.736,3.179,7.595,3.179c0.256,0,0.512,0,0.768-0.021
			c44.821-3.243,82.709-3.691,115.221-1.003c3.115,0.235,6.379-0.939,8.597-3.285c2.219-2.325,3.285-5.547,2.859-8.725
			L366.869,123.968z M353.515,106.155c-5.717,0.896-9.685,6.187-8.939,11.925l9.771,74.837c-27.051-1.515-57.856-1.131-92.907,1.067
			L273.984,49.6c1.408-16.128,14.656-28.267,30.827-28.267c15.488,0,28.672,11.584,30.656,26.923l3.691,28.245
			c0.768,5.824,6.144,9.899,11.883,9.216c0.896-0.107,1.749-0.32,0.96-0.384c5.867,0,10.667,4.779,10.667,10.667
			C362.667,101.056,358.805,105.344,353.515,106.155z"/>
	</g>
</g>
<g>
	<g>
		<path d="M366.891,388.032l10.304-79.104c0.405-3.179-0.64-6.4-2.859-8.725c-2.219-2.347-5.483-3.52-8.597-3.285
			c-32.491,2.688-70.379,2.261-115.221-1.003c-3.179-0.256-6.187,0.917-8.384,3.136c-2.197,2.24-3.307,5.312-3.029,8.427
			l13.632,156.779C255.104,491.477,277.504,512,304.811,512c26.155,0,48.448-19.563,51.84-45.504l2.517-19.307
			C373.376,443.925,384,431.189,384,416C384,403.925,377.216,393.365,366.891,388.032z M353.707,426.837
			c-0.597-0.171-2.197-0.512-2.795-0.576c-5.653-0.555-10.965,3.456-11.733,9.216l-3.691,28.245
			c-2.005,15.36-15.189,26.944-30.677,26.944c-16.171,0-29.419-12.139-30.827-28.245L261.44,318.037
			c35.029,2.176,65.856,2.539,92.907,1.045l-9.771,74.837c-0.747,5.739,3.221,11.029,8.96,11.925
			c5.291,0.811,9.131,5.099,9.131,10.155C362.667,421.888,357.867,426.667,353.707,426.837z"/>
	</g>
</g>
<g>
	<g>
		<path d="M320,192c-64.064,0-140.992,7.765-196.011,19.605c-4.053-20.693-12.075-40.939-27.989-40.939
			c-20.949,0-28.139,34.581-30.635,59.157c-11.008,5.44-22.699,13.632-22.699,26.176s11.691,20.736,22.699,26.176
			c2.496,24.576,9.685,59.157,30.635,59.157c15.893,0,23.936-20.245,27.989-40.939C178.987,312.235,255.915,320,320,320
			c103.275,0,149.333-19.733,149.333-64S423.275,192,320,192z M320,298.667c-67.051,0-148.309-8.661-202.24-21.547
			c-2.837-0.704-6.016-0.128-8.512,1.579c-2.475,1.707-4.117,4.395-4.523,7.381c-2.432,18.112-6.251,27.712-8.725,31.915
			c-3.243-5.525-8.085-19.584-9.899-43.733c-0.32-3.968-2.795-7.424-6.443-9.003c-11.819-5.099-14.933-8.704-15.595-8.811
			c0.661-1.003,3.776-4.608,15.595-9.707c3.648-1.579,6.123-5.035,6.443-9.003c1.813-24.149,6.656-38.187,9.877-43.733
			c2.496,4.203,6.293,13.803,8.747,31.915c0.405,2.987,2.048,5.675,4.523,7.381c2.496,1.707,5.611,2.304,8.512,1.579
			c53.931-12.885,135.189-21.547,202.24-21.547c128,0,128,32.107,128,42.667S448,298.667,320,298.667z"/>
	</g>
</g>
<g>
	<g>
		<path d="M376.533,224.512c-5.589-1.728-11.563,1.344-13.333,6.955c-1.771,5.589,1.323,11.584,6.912,13.376
			C374.955,246.4,384,251.264,384,256s-9.045,9.6-13.867,11.157c-5.632,1.749-8.747,7.744-6.997,13.355
			c1.451,4.565,5.653,7.488,10.197,7.488c1.045,0,2.133-0.149,3.179-0.491c2.944-0.917,28.821-9.643,28.821-31.509
			S379.456,225.408,376.533,224.512z"/>
	</g>
</g>
<g>
</g>
<g>
</g>
<g>
</g>
<g>
</g>
<g>
</g>
<g>
</g>
<g>
</g>
<g>
</g>
<g>
</g>
<g>
</g>
<g>
</g>
<g>
</g>
<g>
</g>
<g>
</g>
<g>
</g>
</svg>
