<?xml version="1.0" encoding="iso-8859-1"?>
<!-- Generator: Adobe Illustrator 19.0.0, SVG Export Plug-In . SVG Version: 6.00 Build 0)  -->
<svg version="1.1" id="Capa_1" xmlns="http://www.w3.org/2000/svg" xmlns:xlink="http://www.w3.org/1999/xlink" x="0px" y="0px"
	 viewBox="0 0 512 512" style="enable-background:new 0 0 512 512;" xml:space="preserve">
<g>
	<g>
		<path d="M480,106.667h-85.333c-4.032,0-7.723,2.283-9.536,5.888L377.429,128H134.592l-7.723-15.445
			c-1.813-3.605-5.504-5.888-9.536-5.888H32c-17.643,0-32,14.357-32,32V416c0,17.643,14.357,32,32,32h448c17.643,0,32-14.357,32-32
			V138.667C512,121.024,497.643,106.667,480,106.667z M490.667,416c0,5.888-4.8,10.667-10.667,10.667H32
			c-5.867,0-10.667-4.779-10.667-10.667V138.667c0-5.888,4.8-10.667,10.667-10.667h78.741l7.723,15.445
			c1.813,3.605,5.504,5.888,9.536,5.888h256c4.032,0,7.723-2.283,9.557-5.888L401.259,128H480c5.867,0,10.667,4.779,10.667,10.667
			V416z"/>
	</g>
</g>
<g>
	<g>
		<path d="M309.333,85.333H202.667c-17.643,0-32,14.357-32,32v21.333c0,5.888,4.779,10.667,10.667,10.667S192,144.555,192,138.667
			v-21.333c0-5.888,4.8-10.667,10.667-10.667h106.667c5.867,0,10.667,4.779,10.667,10.667v21.333
			c0,5.888,4.779,10.667,10.667,10.667s10.667-4.779,10.667-10.667v-21.333C341.333,99.691,326.976,85.333,309.333,85.333z"/>
	</g>
</g>
<g>
	<g>
		<path d="M96,64H53.333c-5.888,0-10.667,4.779-10.667,10.667v42.667c0,5.888,4.779,10.667,10.667,10.667S64,123.221,64,117.333v-32
			h21.333v32C85.333,123.221,90.112,128,96,128s10.667-4.779,10.667-10.667V74.667C106.667,68.779,101.888,64,96,64z"/>
	</g>
</g>
<g>
	<g>
		<path d="M458.667,64H416c-5.888,0-10.667,4.779-10.667,10.667v42.667c0,5.888,4.779,10.667,10.667,10.667
			c5.888,0,10.667-4.779,10.667-10.667v-32H448v32c0,5.888,4.779,10.667,10.667,10.667s10.667-4.779,10.667-10.667V74.667
			C469.333,68.779,464.555,64,458.667,64z"/>
	</g>
</g>
<g>
	<g>
		<path d="M160,277.333H74.667C68.779,277.333,64,282.112,64,288s4.779,10.667,10.667,10.667H160
			c5.888,0,10.667-4.779,10.667-10.667S165.888,277.333,160,277.333z"/>
	</g>
</g>
<g>
	<g>
		<path d="M117.333,234.667c-5.888,0-10.667,4.779-10.667,10.667v85.333c0,5.888,4.779,10.667,10.667,10.667
			S128,336.555,128,330.667v-85.333C128,239.445,123.221,234.667,117.333,234.667z"/>
	</g>
</g>
<g>
	<g>
		<path d="M437.333,277.333H352c-5.888,0-10.667,4.779-10.667,10.667s4.779,10.667,10.667,10.667h85.333
			c5.888,0,10.667-4.779,10.667-10.667S443.221,277.333,437.333,277.333z"/>
	</g>
</g>
<g>
</g>
<g>
</g>
<g>
</g>
<g>
</g>
<g>
</g>
<g>
</g>
<g>
</g>
<g>
</g>
<g>
</g>
<g>
</g>
<g>
</g>
<g>
</g>
<g>
</g>
<g>
</g>
<g>
</g>
</svg>
