<?xml version="1.0" encoding="iso-8859-1"?>
<!-- Generator: Adobe Illustrator 19.0.0, SVG Export Plug-In . SVG Version: 6.00 Build 0)  -->
<svg version="1.1" id="Capa_1" xmlns="http://www.w3.org/2000/svg" xmlns:xlink="http://www.w3.org/1999/xlink" x="0px" y="0px"
	 viewBox="0 0 512 512" style="enable-background:new 0 0 512 512;" xml:space="preserve">
<g>
	<g>
		<path d="M416,0H96C66.581,0,42.667,23.936,42.667,53.333V416c0,29.397,23.915,53.333,53.333,53.333h320
			c29.419,0,53.333-23.936,53.333-53.333V53.333C469.333,23.936,445.419,0,416,0z M448,416c0,17.643-14.357,32-32,32H96
			c-17.643,0-32-14.357-32-32V53.333c0-17.643,14.357-32,32-32h320c17.643,0,32,14.357,32,32V416z"/>
	</g>
</g>
<g>
	<g>
		<path d="M53.333,234.667H32c-5.867,0-10.667-4.779-10.667-10.667v-21.333c0-17.643,14.357-32,32-32
			C59.221,170.667,64,165.888,64,160s-4.779-10.667-10.667-10.667C23.915,149.333,0,173.269,0,202.667V224c0,17.643,14.357,32,32,32
			h21.333C59.221,256,64,251.221,64,245.333S59.221,234.667,53.333,234.667z"/>
	</g>
</g>
<g>
	<g>
		<path d="M458.667,149.333c-5.888,0-10.667,4.779-10.667,10.667s4.779,10.667,10.667,10.667c17.643,0,32,14.357,32,32V224
			c0,5.888-4.8,10.667-10.667,10.667h-21.333c-5.888,0-10.667,4.779-10.667,10.667S452.779,256,458.667,256H480
			c17.643,0,32-14.357,32-32v-21.333C512,173.269,488.085,149.333,458.667,149.333z"/>
	</g>
</g>
<g>
	<g>
		<path d="M138.667,341.333c-17.643,0-32,14.357-32,32c0,17.643,14.357,32,32,32c17.643,0,32-14.357,32-32
			C170.667,355.691,156.309,341.333,138.667,341.333z M138.667,384C132.8,384,128,379.221,128,373.333
			c0-5.888,4.8-10.667,10.667-10.667c5.867,0,10.667,4.779,10.667,10.667C149.333,379.221,144.533,384,138.667,384z"/>
	</g>
</g>
<g>
	<g>
		<path d="M373.333,341.333c-17.643,0-32,14.357-32,32c0,17.643,14.357,32,32,32c17.643,0,32-14.357,32-32
			C405.333,355.691,390.976,341.333,373.333,341.333z M373.333,384c-5.867,0-10.667-4.779-10.667-10.667
			c0-5.888,4.8-10.667,10.667-10.667c5.867,0,10.667,4.779,10.667,10.667C384,379.221,379.2,384,373.333,384z"/>
	</g>
</g>
<g>
	<g>
		<path d="M181.333,448c-5.888,0-10.667,4.779-10.667,10.667V480c0,5.888-4.8,10.667-10.667,10.667h-42.667
			c-5.867,0-10.667-4.779-10.667-10.667v-21.333c0-5.888-4.779-10.667-10.667-10.667s-10.667,4.779-10.667,10.667V480
			c0,17.643,14.357,32,32,32H160c17.643,0,32-14.357,32-32v-21.333C192,452.779,187.221,448,181.333,448z"/>
	</g>
</g>
<g>
	<g>
		<path d="M416,448c-5.888,0-10.667,4.779-10.667,10.667V480c0,5.888-4.8,10.667-10.667,10.667H352
			c-5.867,0-10.667-4.779-10.667-10.667v-21.333c0-5.888-4.779-10.667-10.667-10.667S320,452.779,320,458.667V480
			c0,17.643,14.357,32,32,32h42.667c17.643,0,32-14.357,32-32v-21.333C426.667,452.779,421.888,448,416,448z"/>
	</g>
</g>
<g>
	<g>
		<path d="M373.333,42.667H138.667c-17.643,0-32,14.357-32,32c0,17.643,14.357,32,32,32h234.667c17.643,0,32-14.357,32-32
			C405.333,57.024,390.976,42.667,373.333,42.667z M373.333,85.333H138.667C132.8,85.333,128,80.555,128,74.667S132.8,64,138.667,64
			h234.667C379.2,64,384,68.779,384,74.667S379.2,85.333,373.333,85.333z"/>
	</g>
</g>
<g>
	<g>
		<path d="M394.667,128H117.333c-17.643,0-32,14.357-32,32v106.667c0,17.643,14.357,32,32,32h277.333c17.643,0,32-14.357,32-32V160
			C426.667,142.357,412.309,128,394.667,128z M405.333,266.667c0,5.888-4.8,10.667-10.667,10.667H117.333
			c-5.867,0-10.667-4.779-10.667-10.667V160c0-5.888,4.8-10.667,10.667-10.667h277.333c5.867,0,10.667,4.779,10.667,10.667V266.667z
			"/>
	</g>
</g>
<g>
</g>
<g>
</g>
<g>
</g>
<g>
</g>
<g>
</g>
<g>
</g>
<g>
</g>
<g>
</g>
<g>
</g>
<g>
</g>
<g>
</g>
<g>
</g>
<g>
</g>
<g>
</g>
<g>
</g>
</svg>
