<?xml version="1.0" encoding="iso-8859-1"?>
<!-- Generator: Adobe Illustrator 19.0.0, SVG Export Plug-In . SVG Version: 6.00 Build 0)  -->
<svg version="1.1" id="Capa_1" xmlns="http://www.w3.org/2000/svg" xmlns:xlink="http://www.w3.org/1999/xlink" x="0px" y="0px"
	 viewBox="0 0 512 512" style="enable-background:new 0 0 512 512;" xml:space="preserve">
<g>
	<g>
		<path d="M330.667,213.333h-96v-32c0-5.888-4.779-10.667-10.667-10.667s-10.667,4.779-10.667,10.667V224
			c0,5.888,4.779,10.667,10.667,10.667h106.667c5.888,0,10.667-4.779,10.667-10.667S336.555,213.333,330.667,213.333z"/>
	</g>
</g>
<g>
	<g>
		<path d="M405.333,256c-35.285,0-64,28.715-64,64s28.715,64,64,64c35.285,0,64-28.715,64-64S440.619,256,405.333,256z
			 M405.333,362.667c-23.531,0-42.667-19.136-42.667-42.667c0-23.531,19.136-42.667,42.667-42.667
			C428.864,277.333,448,296.469,448,320S428.864,362.667,405.333,362.667z"/>
	</g>
</g>
<g>
	<g>
		<path d="M85.333,256c-35.285,0-64,28.715-64,64s28.715,64,64,64s64-28.715,64-64S120.619,256,85.333,256z M85.333,362.667
			c-23.531,0-42.667-19.136-42.667-42.667c0-23.531,19.136-42.667,42.667-42.667C108.864,277.333,128,296.469,128,320
			S108.864,362.667,85.333,362.667z"/>
	</g>
</g>
<g>
	<g>
		<path d="M352,320H138.667c-5.888,0-10.667,4.779-10.667,10.667s4.779,10.667,10.667,10.667H352
			c5.888,0,10.667-4.779,10.667-10.667S357.888,320,352,320z"/>
	</g>
</g>
<g>
	<g>
		<path d="M398.549,192.043C382.933,179.584,311.616,128,202.667,128c-20.608,0-73.195,2.112-120.576,21.333H32
			c-4.309,0-8.213,2.603-9.856,6.592c-1.664,3.989-0.747,8.555,2.304,11.627l10.432,10.411C11.712,198.741,0,224.939,0,256
			c0,36.629,3.307,85.333,32,85.333c5.888,0,10.667-4.779,10.667-10.667S37.888,320,32,320c-0.085-0.021-10.667-5.909-10.667-64
			c0-28.352,11.712-50.795,35.776-68.672c2.496-1.856,4.053-4.693,4.288-7.787c0.235-3.093-0.896-6.123-3.093-8.32l-0.555-0.555
			h26.453c1.408,0,2.816-0.277,4.096-0.832c44.352-18.496,94.763-20.501,114.368-20.501c112.939,0,184.299,60.779,185.003,61.376
			c1.941,1.685,4.416,2.624,6.997,2.624c69.184,0,95.851,44.288,96,53.333v42.667c0,5.568-8.213,10.389-10.667,10.667h-21.333
			c-5.888,0-10.667,4.779-10.667,10.667s4.779,10.667,10.667,10.667H480c12.885,0,32-13.44,32-32v-42.667
			C512,246.443,477.077,193.728,398.549,192.043z"/>
	</g>
</g>
<g>
</g>
<g>
</g>
<g>
</g>
<g>
</g>
<g>
</g>
<g>
</g>
<g>
</g>
<g>
</g>
<g>
</g>
<g>
</g>
<g>
</g>
<g>
</g>
<g>
</g>
<g>
</g>
<g>
</g>
</svg>
