<?xml version="1.0"?>
<svg xmlns="http://www.w3.org/2000/svg" id="Icons" viewBox="0 0 74 74" width="512" height="512"><path d="M61.347,58.512H12.653a10.653,10.653,0,0,1-.969-21.262A14.288,14.288,0,0,1,30.562,24.7,17.272,17.272,0,0,1,62.518,37.271a10.653,10.653,0,0,1-1.171,21.242ZM25.926,25.934A12.287,12.287,0,0,0,13.653,38.207a1,1,0,0,1-1,1,8.653,8.653,0,1,0,0,17.306H61.347a8.653,8.653,0,1,0,0-17.306h-.164a1,1,0,0,1-.944-1.328,15.536,15.536,0,0,0,.886-5.1,15.281,15.281,0,0,0-29.162-6.4,1,1,0,0,1-1.295.5A12.192,12.192,0,0,0,25.926,25.934Z"/><path d="M31.592,45.8l1.711.432a5.758,5.758,0,0,1-1.935,3.214,5.333,5.333,0,0,1-3.417,1.107,6.14,6.14,0,0,1-3.4-.851,5.313,5.313,0,0,1-1.993-2.464,8.793,8.793,0,0,1-.683-3.465,7.617,7.617,0,0,1,.772-3.523,5.286,5.286,0,0,1,2.2-2.284,6.415,6.415,0,0,1,3.135-.78,5.3,5.3,0,0,1,3.262.988,5.128,5.128,0,0,1,1.843,2.777l-1.684.4a4,4,0,0,0-1.3-2.054,3.477,3.477,0,0,0-2.151-.644,4.179,4.179,0,0,0-2.491.714,3.772,3.772,0,0,0-1.406,1.918,7.721,7.721,0,0,0-.406,2.482,7.888,7.888,0,0,0,.481,2.879,3.58,3.58,0,0,0,1.495,1.838,4.191,4.191,0,0,0,2.2.608,3.679,3.679,0,0,0,2.434-.829A4.242,4.242,0,0,0,31.592,45.8Z"/><path d="M27.95,50.682a6.29,6.29,0,0,1-3.468-.871,5.461,5.461,0,0,1-2.039-2.521,8.953,8.953,0,0,1-.693-3.514,7.78,7.78,0,0,1,.785-3.58,5.443,5.443,0,0,1,2.246-2.336,6.568,6.568,0,0,1,3.2-.8,5.446,5.446,0,0,1,3.338,1.013A5.271,5.271,0,0,1,33.2,40.92l.037.126-1.926.453-.035-.11A3.89,3.89,0,0,0,30.018,39.4a3.37,3.37,0,0,0-2.076-.619,4.08,4.08,0,0,0-2.419.69,3.671,3.671,0,0,0-1.36,1.856,7.623,7.623,0,0,0-.4,2.442,7.816,7.816,0,0,0,.472,2.833,3.471,3.471,0,0,0,1.442,1.776,4.08,4.08,0,0,0,2.131.591,3.572,3.572,0,0,0,2.354-.8,4.138,4.138,0,0,0,1.308-2.39l.027-.126,1.957.494-.031.121a5.9,5.9,0,0,1-1.979,3.282A5.48,5.48,0,0,1,27.95,50.682Zm.026-13.367a6.321,6.321,0,0,0-3.075.765,5.19,5.19,0,0,0-2.144,2.231A7.524,7.524,0,0,0,22,43.776a8.7,8.7,0,0,0,.674,3.417A5.205,5.205,0,0,0,24.619,49.6a6.045,6.045,0,0,0,3.331.831,5.239,5.239,0,0,0,3.34-1.08,5.6,5.6,0,0,0,1.858-3.026l-1.463-.37a4.311,4.311,0,0,1-1.363,2.4,3.82,3.82,0,0,1-2.514.857,4.332,4.332,0,0,1-2.26-.626A3.713,3.713,0,0,1,24,46.691a8.032,8.032,0,0,1-.489-2.924,7.874,7.874,0,0,1,.412-2.522,3.909,3.909,0,0,1,1.452-1.979,4.317,4.317,0,0,1,2.563-.737,3.617,3.617,0,0,1,2.227.668A4.055,4.055,0,0,1,31.48,41.2l1.443-.34a4.985,4.985,0,0,0-1.76-2.586A5.2,5.2,0,0,0,27.977,37.314Z"/><path d="M34.889,44.041A7.024,7.024,0,0,1,36.618,39a5.876,5.876,0,0,1,4.462-1.821,6.189,6.189,0,0,1,3.227.855A5.586,5.586,0,0,1,46.5,40.421a7.746,7.746,0,0,1,.754,3.47,7.617,7.617,0,0,1-.794,3.518,5.418,5.418,0,0,1-2.248,2.35,6.424,6.424,0,0,1-3.139.8,6.112,6.112,0,0,1-3.262-.882,5.674,5.674,0,0,1-2.178-2.407A7.3,7.3,0,0,1,34.889,44.041Zm1.763.026a5.178,5.178,0,0,0,1.256,3.681,4.383,4.383,0,0,0,6.331-.013,5.49,5.49,0,0,0,1.248-3.853,6.622,6.622,0,0,0-.533-2.755A4.1,4.1,0,0,0,43.394,39.3a4.231,4.231,0,0,0-2.306-.648A4.374,4.374,0,0,0,37.962,39.9Q36.653,41.148,36.653,44.067Z"/><path d="M41.07,50.682a6.262,6.262,0,0,1-3.328-.9,5.824,5.824,0,0,1-2.225-2.459,7.439,7.439,0,0,1-.753-3.282,7.177,7.177,0,0,1,1.762-5.125,6.022,6.022,0,0,1,4.553-1.86,6.344,6.344,0,0,1,3.291.873,5.723,5.723,0,0,1,2.239,2.437,7.9,7.9,0,0,1,.767,3.525,7.784,7.784,0,0,1-.807,3.575,5.57,5.57,0,0,1-2.3,2.4A6.575,6.575,0,0,1,41.07,50.682Zm.009-13.376a5.781,5.781,0,0,0-4.371,1.782,6.937,6.937,0,0,0-1.693,4.953,7.2,7.2,0,0,0,.728,3.172,5.581,5.581,0,0,0,2.131,2.355,6.016,6.016,0,0,0,3.2.863,6.329,6.329,0,0,0,3.078-.782,5.325,5.325,0,0,0,2.2-2.3,7.528,7.528,0,0,0,.779-3.461,7.65,7.65,0,0,0-.741-3.415,5.487,5.487,0,0,0-2.142-2.333A6.1,6.1,0,0,0,41.079,37.306Zm-.018,11.912a4.274,4.274,0,0,1-3.244-1.384,5.325,5.325,0,0,1-1.29-3.767c0-1.972.454-3.4,1.349-4.256a4.511,4.511,0,0,1,3.212-1.282,4.368,4.368,0,0,1,2.372.667,4.24,4.24,0,0,1,1.608,1.879,6.792,6.792,0,0,1,.544,2.807,5.631,5.631,0,0,1-1.28,3.938A4.265,4.265,0,0,1,41.062,49.218Zm.026-10.439a4.272,4.272,0,0,0-3.04,1.213c-.843.8-1.271,2.174-1.271,4.076A5.076,5.076,0,0,0,38,47.663a4.258,4.258,0,0,0,6.147-.012,5.4,5.4,0,0,0,1.214-3.769,6.526,6.526,0,0,0-.522-2.7,4,4,0,0,0-1.513-1.771A4.127,4.127,0,0,0,41.088,38.778Z"/><path d="M55.312,50.131v.859H50.5a1.581,1.581,0,0,1,.1-.621,3.283,3.283,0,0,1,.588-.968,9.217,9.217,0,0,1,1.169-1.1,9.911,9.911,0,0,0,1.6-1.542,1.846,1.846,0,0,0,.417-1.075,1.194,1.194,0,0,0-.38-.9,1.37,1.37,0,0,0-.99-.365,1.4,1.4,0,0,0-1.033.387,1.465,1.465,0,0,0-.392,1.072l-.918-.094a2.261,2.261,0,0,1,.71-1.566,2.422,2.422,0,0,1,1.653-.539,2.307,2.307,0,0,1,1.658.581A1.907,1.907,0,0,1,55.3,45.7a2.184,2.184,0,0,1-.179.859,3.333,3.333,0,0,1-.593.889,14.453,14.453,0,0,1-1.378,1.281q-.8.675-1.033.916a2.938,2.938,0,0,0-.377.484Z"/><path d="M55.563,51.24h-5.3L50.252,51a1.835,1.835,0,0,1,.121-.718A3.518,3.518,0,0,1,51,49.24a9.446,9.446,0,0,1,1.2-1.134,9.71,9.71,0,0,0,1.56-1.5,1.613,1.613,0,0,0,.369-.927.942.942,0,0,0-.3-.715,1.118,1.118,0,0,0-.817-.3,1.145,1.145,0,0,0-.855.314,1.213,1.213,0,0,0-.319.9l0,.275L50.4,46.01l.022-.246a2.506,2.506,0,0,1,.795-1.731,2.669,2.669,0,0,1,1.817-.6,2.557,2.557,0,0,1,1.83.65,2.158,2.158,0,0,1,.688,1.621,2.44,2.44,0,0,1-.2.956,3.607,3.607,0,0,1-.637.958,14.729,14.729,0,0,1-1.4,1.306c-.525.44-.866.742-1.013.9l-.058.062h3.318Zm-4.8-.5h4.3v-.359H51.3l.23-.38a3.143,3.143,0,0,1,.409-.526c.162-.171.507-.477,1.055-.936a14.4,14.4,0,0,0,1.351-1.255,3.106,3.106,0,0,0,.55-.82,1.946,1.946,0,0,0,.159-.761,1.651,1.651,0,0,0-.533-1.259,2.048,2.048,0,0,0-1.485-.512,2.191,2.191,0,0,0-1.488.477,1.873,1.873,0,0,0-.595,1.156l.4.042a1.613,1.613,0,0,1,.449-.974,1.641,1.641,0,0,1,1.209-.46,1.616,1.616,0,0,1,1.164.435,1.438,1.438,0,0,1,.456,1.076,2.088,2.088,0,0,1-.466,1.223,9.964,9.964,0,0,1-1.646,1.587,9.01,9.01,0,0,0-1.137,1.071,3.043,3.043,0,0,0-.544.894A1.387,1.387,0,0,0,50.766,50.74Z"/></svg>
