<?xml version="1.0" encoding="iso-8859-1"?>
<!-- Generator: Adobe Illustrator 19.0.0, SVG Export Plug-In . SVG Version: 6.00 Build 0)  -->
<svg version="1.1" id="Capa_1" xmlns="http://www.w3.org/2000/svg" xmlns:xlink="http://www.w3.org/1999/xlink" x="0px" y="0px"
	 viewBox="0 0 512 512" style="enable-background:new 0 0 512 512;" xml:space="preserve">
<g>
	<g>
		<path d="M366.635,158.037C365.611,141.205,351.573,128,334.699,128H177.323c-16.875,0-30.933,13.205-31.957,30.037l-6.699,108.629
			c0,29.696,89.813,32,117.333,32s117.333-2.304,117.312-32.661L366.635,158.037z M256,277.333c-55.403,0-88.085-8-95.829-13.035
			l6.507-104.96c0.341-5.611,5.013-10.005,10.645-10.005h157.355c5.632,0,10.304,4.395,10.645,10.005l6.528,104.939
			C344.149,269.312,311.445,277.333,256,277.333z"/>
	</g>
</g>
<g>
	<g>
		<path d="M160,320c-17.643,0-32,14.357-32,32c0,17.643,14.357,32,32,32s32-14.357,32-32C192,334.357,177.643,320,160,320z
			 M160,362.667c-5.867,0-10.667-4.779-10.667-10.667c0-5.888,4.8-10.667,10.667-10.667c5.867,0,10.667,4.779,10.667,10.667
			C170.667,357.888,165.867,362.667,160,362.667z"/>
	</g>
</g>
<g>
	<g>
		<path d="M352,320c-17.643,0-32,14.357-32,32c0,17.643,14.357,32,32,32c17.643,0,32-14.357,32-32C384,334.357,369.643,320,352,320z
			 M352,362.667c-5.867,0-10.667-4.779-10.667-10.667c0-5.888,4.8-10.667,10.667-10.667c5.867,0,10.667,4.779,10.667,10.667
			C362.667,357.888,357.867,362.667,352,362.667z"/>
	</g>
</g>
<g>
	<g>
		<path d="M288,341.333h-64c-5.888,0-10.667,4.779-10.667,10.667c0,5.888,4.779,10.667,10.667,10.667h64
			c5.888,0,10.667-4.779,10.667-10.667C298.667,346.112,293.888,341.333,288,341.333z"/>
	</g>
</g>
<g>
	<g>
		<path d="M407.957,113.792C406.101,85.867,382.763,64,354.752,64H157.248c-27.989,0-51.349,21.867-53.205,49.792L85.333,394.667
			C85.333,426.091,175.275,448,256,448s170.667-21.909,170.645-54.059L407.957,113.792z M256,426.667
			c-86.763,0-144.896-23.552-149.355-31.296L125.333,115.2c1.109-16.747,15.125-29.867,31.915-29.867h197.504
			c16.789,0,30.805,13.12,31.915,29.867l18.88,278.293C400.896,403.115,342.763,426.667,256,426.667z"/>
	</g>
</g>
<g>
	<g>
		<path d="M145.6,418.56c-4.416-3.84-11.157-3.328-15.04,1.152l-64,74.667c-3.819,4.48-3.307,11.2,1.173,15.04
			c2.005,1.728,4.48,2.581,6.933,2.581c3.008,0,5.973-1.259,8.107-3.733l64-74.667C150.592,429.12,150.08,422.4,145.6,418.56z"/>
	</g>
</g>
<g>
	<g>
		<path d="M445.44,494.379l-64-74.667c-3.861-4.48-10.581-4.992-15.04-1.152c-4.48,3.84-5.013,10.581-1.173,15.04l64,74.667
			c2.133,2.475,5.099,3.733,8.107,3.733c2.453,0,4.928-0.853,6.933-2.581C448.747,505.579,449.28,498.837,445.44,494.379z"/>
	</g>
</g>
<g>
	<g>
		<path d="M416,469.333H96c-5.888,0-10.667,4.779-10.667,10.667c0,5.888,4.779,10.667,10.667,10.667h320
			c5.888,0,10.667-4.779,10.667-10.667C426.667,474.112,421.888,469.333,416,469.333z"/>
	</g>
</g>
<g>
	<g>
		<path d="M373.333,426.667H138.667c-5.888,0-10.667,4.779-10.667,10.667c0,5.888,4.779,10.667,10.667,10.667h234.667
			c5.888,0,10.667-4.779,10.667-10.667C384,431.445,379.221,426.667,373.333,426.667z"/>
	</g>
</g>
<g>
	<g>
		<path d="M309.333,0H202.667C102.677,0,21.333,81.344,21.333,181.333v320C21.333,507.221,26.112,512,32,512
			s10.667-4.779,10.667-10.667v-320c0-88.235,71.765-160,160-160h106.667c88.235,0,160,71.765,160,160v320
			c0,5.888,4.779,10.667,10.667,10.667c5.888,0,10.667-4.779,10.667-10.667v-320C490.667,81.344,409.323,0,309.333,0z"/>
	</g>
</g>
<g>
	<g>
		<path d="M256,64c-23.531,0-42.667,19.136-42.667,42.667c0,23.531,19.136,42.667,42.667,42.667s42.667-19.136,42.667-42.667
			C298.667,83.136,279.531,64,256,64z M256,128c-11.776,0-21.333-9.579-21.333-21.333c0-11.755,9.557-21.333,21.333-21.333
			s21.333,9.579,21.333,21.333C277.333,118.421,267.776,128,256,128z"/>
	</g>
</g>
<g>
</g>
<g>
</g>
<g>
</g>
<g>
</g>
<g>
</g>
<g>
</g>
<g>
</g>
<g>
</g>
<g>
</g>
<g>
</g>
<g>
</g>
<g>
</g>
<g>
</g>
<g>
</g>
<g>
</g>
</svg>
