<?xml version="1.0" encoding="iso-8859-1"?>
<!-- Generator: Adobe Illustrator 19.0.0, SVG Export Plug-In . SVG Version: 6.00 Build 0)  -->
<svg version="1.1" id="Capa_1" xmlns="http://www.w3.org/2000/svg" xmlns:xlink="http://www.w3.org/1999/xlink" x="0px" y="0px"
	 viewBox="0 0 512 512" style="enable-background:new 0 0 512 512;" xml:space="preserve">
<g>
	<g>
		<path d="M106.667,266.667c-35.285,0-64,28.715-64,64s28.715,64,64,64s64-28.715,64-64S141.952,266.667,106.667,266.667z
			 M106.667,373.333C83.136,373.333,64,354.197,64,330.667S83.136,288,106.667,288c23.531,0,42.667,19.136,42.667,42.667
			S130.197,373.333,106.667,373.333z"/>
	</g>
</g>
<g>
	<g>
		<path d="M405.333,266.667c-35.285,0-64,28.715-64,64s28.715,64,64,64c35.285,0,64-28.715,64-64S440.619,266.667,405.333,266.667z
			 M405.333,373.333c-23.531,0-42.667-19.136-42.667-42.667S381.803,288,405.333,288C428.864,288,448,307.136,448,330.667
			S428.864,373.333,405.333,373.333z"/>
	</g>
</g>
<g>
	<g>
		<path d="M458.667,202.645h-37.504c-14.251,0-27.648-5.547-37.717-15.616L335.616,139.2c-14.101-14.101-32.853-21.867-52.8-21.867
			H160c-17.643,0-32,14.357-32,32v53.333H10.667C4.779,202.667,0,207.445,0,213.333V320c0,1.173,0.192,2.347,0.576,3.477
			C0.981,324.629,10.88,352,53.333,352C59.221,352,64,347.221,64,341.333c0-5.888-4.779-10.667-10.667-10.667
			c-22.272,0-29.995-9.707-32-13.035V224h117.333c5.888,0,10.667-4.779,10.667-10.667v-64c0-5.888,4.779-10.667,10.667-10.667
			h122.816c14.251,0,27.648,5.547,37.739,15.637l47.829,47.829c14.101,14.101,32.853,21.867,52.8,21.867h37.483
			c17.643,0,32,14.357,32,32v42.667c0,23.595-16.533,32-32,32c-5.888,0-10.667,4.779-10.667,10.667
			c0,5.888,4.779,10.667,10.667,10.667C490.069,352,512,330.069,512,298.645v-42.667C512,226.581,488.064,202.645,458.667,202.645z"
			/>
	</g>
</g>
<g>
	<g>
		<path d="M352,330.667H160c-5.888,0-10.667,4.779-10.667,10.667c0,5.888,4.779,10.667,10.667,10.667h192
			c5.888,0,10.667-4.779,10.667-10.667C362.667,335.445,357.888,330.667,352,330.667z"/>
	</g>
</g>
<g>
	<g>
		<path d="M266.667,245.333h-21.333c-5.888,0-10.667,4.779-10.667,10.667s4.779,10.667,10.667,10.667h21.333
			c5.888,0,10.667-4.779,10.667-10.667S272.555,245.333,266.667,245.333z"/>
	</g>
</g>
<g>
	<g>
		<path d="M330.667,202.667H256v-32c0-5.888-4.779-10.667-10.667-10.667s-10.667,4.779-10.667,10.667v42.667
			c0,5.888,4.779,10.667,10.667,10.667h85.333c5.888,0,10.667-4.779,10.667-10.667S336.555,202.667,330.667,202.667z"/>
	</g>
</g>
<g>
</g>
<g>
</g>
<g>
</g>
<g>
</g>
<g>
</g>
<g>
</g>
<g>
</g>
<g>
</g>
<g>
</g>
<g>
</g>
<g>
</g>
<g>
</g>
<g>
</g>
<g>
</g>
<g>
</g>
</svg>
