<?xml version="1.0" encoding="iso-8859-1"?>
<!-- Generator: Adobe Illustrator 19.0.0, SVG Export Plug-In . SVG Version: 6.00 Build 0)  -->
<svg version="1.1" id="Layer_1" xmlns="http://www.w3.org/2000/svg" xmlns:xlink="http://www.w3.org/1999/xlink" x="0px" y="0px"
	 viewBox="0 0 512 512" style="enable-background:new 0 0 512 512;" xml:space="preserve">
<g>
	<g>
		<g>
			<path d="M106.667,192c-11.76,0-21.333,9.573-21.333,21.333c0,11.76,9.573,21.333,21.333,21.333
				c11.76,0,21.333-9.573,21.333-21.333C128,201.573,118.427,192,106.667,192z"/>
			<path d="M333.99,139.198c-44.646-14.646-111.333-14.646-155.979,0c-5.604,1.833-8.646,7.865-6.813,13.458
				c1.844,5.615,7.875,8.688,13.458,6.813c40.417-13.271,102.271-13.271,142.688,0c1.104,0.365,2.219,0.531,3.323,0.531
				c4.49,0,8.656-2.844,10.135-7.344C342.635,147.063,339.594,141.031,333.99,139.198z"/>
			<path d="M501.333,149.333c-4.844,0-9.5-0.49-13.896-1.375c2.031-9.188,3.229-19.385,3.229-30.625c0-17.646-14.354-32-32-32
				s-32,14.354-32,32c0,17.531,14.031,34.073,34.156,43.958c-3.081,7.158-6.747,13.16-10.535,18.315
				C416.771,124.107,342.383,85.333,256,85.333c-49.823,0-97.74,13.021-135.938,36.813c-13.01-10.031-28.844-15.479-45.396-15.479
				c-5.896,0-10.667,4.771-10.667,10.667c0,14.719,4.51,29.125,12.833,41.427c-14.302,16.698-24.406,35.292-29.656,54.573h-4.51
				C19.135,213.333,0,232.469,0,256c0,23.74,12.031,45.406,32.177,57.979l74.49,46.406V416c0,5.896,4.771,10.667,10.667,10.667H160
				c4.042,0,7.729-2.281,9.542-5.896l12.625-25.25c47.208,13.021,100.458,13.021,147.667,0l12.625,25.25
				c1.813,3.615,5.5,5.896,9.542,5.896h42.667c5.896,0,10.667-4.771,10.667-10.667v-56.479c40.75-29.979,64-71.323,64-114.188
				c0-15.542-3.115-30.527-8.65-44.745c7.227-8.059,14.656-18.559,20.327-32.203c6.542,1.479,13.375,2.281,20.323,2.281
				c5.896,0,10.667-4.771,10.667-10.667S507.229,149.333,501.333,149.333z M388.594,345.26c-2.875,2-4.594,5.271-4.594,8.771v51.302
				h-25.406l-13.677-27.344c-2.354-4.698-7.75-7.021-12.74-5.406c-48.229,15.146-104.125,15.146-152.354,0
				c-5.01-1.583-10.396,0.729-12.74,5.406l-13.677,27.344H128v-50.865c0-3.688-1.896-7.104-5.021-9.052l-79.51-49.542
				C29.604,287.229,21.333,272.323,21.333,256c0-11.76,9.573-21.333,21.333-21.333h12.969c5.104,0,9.49-3.615,10.469-8.625
				c4.094-21.01,15.271-41.531,32.323-59.344c3.823-3.99,3.958-10.25,0.313-14.406c-5.969-6.802-10.021-14.583-12-22.906
				c9.313,2.177,17.927,6.865,24.99,13.719c3.656,3.552,9.24,4.021,13.417,1.167c35.75-24.25,82.219-37.604,130.854-37.604
				c105.865,0,192,62.208,192,138.667C448,283.229,426.906,318.719,388.594,345.26z M467.177,140.49
				C455.323,133.75,448,124.448,448,117.333c0-5.885,4.781-10.667,10.667-10.667s10.667,4.781,10.667,10.667
				C469.333,125.76,468.542,133.469,467.177,140.49z"/>
		</g>
	</g>
</g>
<g>
</g>
<g>
</g>
<g>
</g>
<g>
</g>
<g>
</g>
<g>
</g>
<g>
</g>
<g>
</g>
<g>
</g>
<g>
</g>
<g>
</g>
<g>
</g>
<g>
</g>
<g>
</g>
<g>
</g>
</svg>
