<?xml version="1.0" encoding="iso-8859-1"?>
<!-- Generator: Adobe Illustrator 19.0.0, SVG Export Plug-In . SVG Version: 6.00 Build 0)  -->
<svg version="1.1" id="Capa_1" xmlns="http://www.w3.org/2000/svg" xmlns:xlink="http://www.w3.org/1999/xlink" x="0px" y="0px"
	 viewBox="0 0 512 512" style="enable-background:new 0 0 512 512;" xml:space="preserve">
<g>
	<g>
		<path d="M177.344,386.347c-4.587-3.669-11.285-2.901-14.997,1.664L77.013,494.677c-3.669,4.608-2.923,11.307,1.664,14.997
			c1.963,1.557,4.331,2.325,6.656,2.325c3.115,0,6.229-1.365,8.341-3.989l85.333-106.667
			C182.677,396.736,181.931,390.037,177.344,386.347z"/>
	</g>
</g>
<g>
	<g>
		<path d="M434.987,494.656l-85.333-106.667c-3.669-4.565-10.389-5.355-14.997-1.664c-4.587,3.691-5.333,10.389-1.664,14.997
			l85.333,106.667c2.112,2.645,5.205,4.011,8.341,4.011c2.347,0,4.693-0.768,6.656-2.347
			C437.909,505.963,438.656,499.264,434.987,494.656z"/>
	</g>
</g>
<g>
	<g>
		<path d="M405.333,469.333H106.667C100.779,469.333,96,474.112,96,480c0,5.888,4.779,10.667,10.667,10.667h298.667
			c5.888,0,10.667-4.779,10.667-10.667C416,474.112,411.221,469.333,405.333,469.333z"/>
	</g>
</g>
<g>
	<g>
		<path d="M373.333,426.667H138.667c-5.888,0-10.667,4.779-10.667,10.667c0,5.888,4.779,10.667,10.667,10.667h234.667
			c5.888,0,10.667-4.779,10.667-10.667C384,431.445,379.221,426.667,373.333,426.667z"/>
	</g>
</g>
<g>
	<g>
		<path d="M434.816,349.056L419.328,70.528C417.152,30.976,384.405,0,344.789,0H167.211c-39.616,0-72.363,30.976-74.539,70.528
			L77.184,349.035c-0.832,14.784,4.331,28.864,14.507,39.616c10.176,10.752,23.936,16.683,38.741,16.683h251.136
			c14.805,0,28.565-5.931,38.741-16.661C430.485,377.92,435.648,363.84,434.816,349.056z M404.8,373.995
			C398.699,380.437,390.443,384,381.547,384H130.432c-8.875,0-17.131-3.563-23.253-10.005c-6.101-6.443-9.195-14.891-8.704-23.765
			l15.488-278.528c1.557-28.245,24.96-50.368,53.248-50.368h177.579c28.288,0,51.691,22.123,53.248,50.368l15.467,278.528
			C413.995,359.104,410.901,367.552,404.8,373.995z"/>
	</g>
</g>
<g>
	<g>
		<path d="M256,21.333c-17.643,0-32,14.357-32,32c0,17.643,14.357,32,32,32s32-14.357,32-32C288,35.691,273.643,21.333,256,21.333z
			 M256,64c-5.888,0-10.667-4.779-10.667-10.667S250.112,42.667,256,42.667s10.667,4.779,10.667,10.667S261.888,64,256,64z"/>
	</g>
</g>
<g>
	<g>
		<path d="M241.792,88.064c-2.261-2.048-5.269-2.987-8.299-2.667l-96,10.667c-5.419,0.597-9.493,5.163-9.493,10.603v74.667
			c0,3.029,1.301,5.931,3.563,7.957c1.963,1.749,4.48,2.709,7.104,2.709c0.405,0,0.789-0.021,1.173-0.064l96-10.667
			c5.419-0.597,9.493-5.163,9.493-10.603V96C245.333,92.971,244.032,90.069,241.792,88.064z M224,161.131l-74.667,8.299v-53.205
			L224,107.925V161.131z"/>
	</g>
</g>
<g>
	<g>
		<path d="M374.528,96.043l-96-10.667c-3.029-0.299-6.037,0.64-8.299,2.667c-2.261,2.027-3.563,4.928-3.563,7.957v74.667
			c0,5.44,4.075,10.005,9.493,10.603l96,10.667c0.384,0.043,0.768,0.064,1.173,0.064c2.624,0,5.141-0.96,7.104-2.709
			c2.261-2.027,3.563-4.928,3.563-7.957v-74.667C384,101.227,379.925,96.661,374.528,96.043z M362.667,169.408L288,161.109v-53.184
			l74.667,8.299V169.408z"/>
	</g>
</g>
<g>
	<g>
		<path d="M264.085,302.379C260.224,297.877,168.512,192,96,192c-5.888,0-10.667,4.779-10.667,10.667S90.112,213.333,96,213.333
			c62.741,0,151.019,101.909,151.915,102.955c2.112,2.453,5.077,3.712,8.085,3.712c2.475,0,4.928-0.853,6.933-2.581
			C267.413,313.579,267.925,306.837,264.085,302.379z"/>
	</g>
</g>
<g>
	<g>
		<path d="M416,192c-72.512,0-164.224,105.877-168.107,110.379c-3.819,4.459-3.307,11.2,1.152,15.04
			c2.027,1.728,4.48,2.581,6.955,2.581c3.008,0,5.995-1.259,8.085-3.712C288.661,287.637,363.883,213.333,416,213.333
			c5.888,0,10.667-4.779,10.667-10.667S421.888,192,416,192z"/>
	</g>
</g>
<g>
	<g>
		<path d="M149.333,298.667c-17.643,0-32,14.357-32,32c0,17.643,14.357,32,32,32c17.643,0,32-14.357,32-32
			C181.333,313.024,166.976,298.667,149.333,298.667z M149.333,341.333c-5.888,0-10.667-4.779-10.667-10.667
			S143.445,320,149.333,320S160,324.779,160,330.667S155.221,341.333,149.333,341.333z"/>
	</g>
</g>
<g>
	<g>
		<path d="M362.667,298.667c-17.643,0-32,14.357-32,32c0,17.643,14.357,32,32,32s32-14.357,32-32
			C394.667,313.024,380.309,298.667,362.667,298.667z M362.667,341.333c-5.888,0-10.667-4.779-10.667-10.667
			S356.779,320,362.667,320s10.667,4.779,10.667,10.667S368.555,341.333,362.667,341.333z"/>
	</g>
</g>
<g>
</g>
<g>
</g>
<g>
</g>
<g>
</g>
<g>
</g>
<g>
</g>
<g>
</g>
<g>
</g>
<g>
</g>
<g>
</g>
<g>
</g>
<g>
</g>
<g>
</g>
<g>
</g>
<g>
</g>
</svg>
